<svg xmlns="http://www.w3.org/2000/svg" viewBox="0 0 512 512" width="512" height="512">
  <!-- bitcoin1460 mark: seven-segment "1460" filling the tile, orange on gray -->
  <rect width="512" height="512" rx="72" fill="#4b5563"/>
  <g fill="#f7931a">
    <!-- 1 -->
    <polygon points="52,141 64,153 64,234 52,246 40,234 40,153"/>
    <polygon points="52,266 64,278 64,359 52,371 40,359 40,278"/>
    <!-- 4 -->
    <polygon points="86,141 98,153 98,234 86,246 74,234 74,153"/>
    <polygon points="200,141 212,153 212,234 200,246 188,234 188,153"/>
    <polygon points="96,256 108,244 178,244 190,256 178,268 108,268"/>
    <polygon points="200,266 212,278 212,359 200,371 188,359 188,278"/>
    <!-- 6 -->
    <polygon points="232,131 244,119 314,119 326,131 314,143 244,143"/>
    <polygon points="222,141 234,153 234,234 222,246 210,234 210,153"/>
    <polygon points="232,256 244,244 314,244 326,256 314,268 244,268"/>
    <polygon points="222,266 234,278 234,359 222,371 210,359 210,278"/>
    <polygon points="336,266 348,278 348,359 336,371 324,359 324,278"/>
    <polygon points="232,381 244,369 314,369 326,381 314,393 244,393"/>
    <!-- 0 -->
    <polygon points="368,131 380,119 450,119 462,131 450,143 380,143"/>
    <polygon points="358,141 370,153 370,234 358,246 346,234 346,153"/>
    <polygon points="472,141 484,153 484,234 472,246 460,234 460,153"/>
    <polygon points="358,266 370,278 370,359 358,371 346,359 346,278"/>
    <polygon points="472,266 484,278 484,359 472,371 460,359 460,278"/>
    <polygon points="368,381 380,369 450,369 462,381 450,393 380,393"/>
  </g>
</svg>
